<svg width="119" height="44" viewBox="0 0 119 44" fill="none" xmlns="http://www.w3.org/2000/svg">
<g clip-path="url(#clip0_2669_127)">
<path fill-rule="evenodd" clip-rule="evenodd" d="M-0.669632 27.7352L-0.753005 29.1878L-0.753283 29.1926L-0.753491 29.1963L-0.745029 29.1968L1.28459 30.2529L1.0113 35.0142L12.9931 35.7019L14.0739 33.5173L14.3619 32.9361C14.3726 32.9391 14.3834 32.941 14.3942 32.944C14.8271 33.0477 15.271 33.1508 15.7234 33.2531L15.7641 33.2627C15.7688 33.2638 15.7737 33.2649 15.7786 33.2659C15.7887 33.2681 15.7992 33.2704 15.8096 33.2726C15.9328 33.3005 16.0569 33.3279 16.1816 33.3555C16.2605 33.373 16.3396 33.3905 16.419 33.4082C16.4285 33.4106 16.4381 33.4126 16.4477 33.4147C16.4573 33.4168 16.4668 33.4188 16.4764 33.4212C17.1899 33.5798 17.9218 33.7345 18.6647 33.8887C18.6875 33.8924 18.7103 33.8974 18.733 33.9023C18.7773 33.9122 18.8228 33.922 18.8684 33.9307C19.0913 33.9762 19.3154 34.0218 19.5407 34.0675C19.5455 34.069 19.5502 34.0705 19.5551 34.0708L19.5575 34.0709C20.0992 34.1808 20.6471 34.2886 21.1963 34.3953C21.201 34.3968 21.2047 34.397 21.2083 34.3972C21.5992 34.473 21.9914 34.5477 22.3823 34.6222C22.4621 34.6371 22.5419 34.6523 22.6216 34.6675C22.7014 34.6827 22.7811 34.6979 22.8609 34.7127C22.8837 34.7165 22.9065 34.7202 22.9293 34.7252L23.1836 34.7725C23.1944 34.7743 23.2055 34.7765 23.2166 34.7786C23.2277 34.7808 23.2388 34.7829 23.2496 34.7848C23.2784 34.7901 23.306 34.7953 23.3336 34.8005C24.4948 35.0163 25.6504 35.2245 26.7752 35.4212C26.7878 35.4236 26.8007 35.4257 26.8136 35.4278C26.8289 35.4304 26.8443 35.4329 26.8592 35.4357C26.8875 35.4404 26.9157 35.4453 26.9439 35.4503C26.9721 35.4552 27.0003 35.4602 27.0285 35.4648C29.0392 35.8154 30.9452 36.131 32.608 36.3973L32.6176 36.3979C32.8243 36.4304 33.0261 36.4626 33.2244 36.4946C33.2328 36.4963 33.2399 36.4979 33.2484 36.4984C33.2748 36.5035 33.3012 36.5075 33.3289 36.5115C33.3733 36.5182 33.4174 36.5252 33.4613 36.5322C33.5063 36.5394 33.5511 36.5466 33.5956 36.5535C33.6257 36.5576 33.6546 36.5617 33.6846 36.567C33.7387 36.575 33.7927 36.5842 33.8468 36.5921C33.8913 36.5983 33.9382 36.6058 33.9826 36.6132C33.9903 36.6143 33.9979 36.6156 34.0056 36.6169C34.0135 36.6183 34.0215 36.6197 34.0295 36.6208C34.1188 36.6348 34.2072 36.6486 34.2946 36.6623C34.5787 36.7068 34.8524 36.7497 35.1134 36.7897C35.1218 36.7914 35.1302 36.7931 35.1386 36.7936C35.1495 36.7942 35.159 36.7972 35.1699 36.7978C35.2213 36.8054 35.2724 36.8133 35.3231 36.8212C35.3648 36.8277 35.4063 36.8342 35.4475 36.8404L35.5556 36.8575L35.6638 36.8746L35.6698 36.875C35.6789 36.8761 35.6879 36.8775 35.6969 36.879C35.7059 36.8804 35.7149 36.8818 35.7239 36.8829C35.9133 36.9122 36.0947 36.9396 36.2677 36.9658C36.3802 36.9828 36.489 36.9993 36.5941 37.0153C36.6229 37.0195 36.6523 37.0242 36.681 37.0287C36.6943 37.0308 36.7074 37.0328 36.7203 37.0347L36.7624 37.0408C37.392 37.1361 37.8767 37.207 38.1814 37.2517L38.2387 37.2601C38.2443 37.2604 38.2504 37.2613 38.2564 37.2623C38.2594 37.2629 38.2623 37.2634 38.2652 37.264L38.2736 37.2645C38.3662 37.2783 38.4359 37.2884 38.4828 37.2947L38.4925 37.2952C38.4973 37.2955 38.5069 37.2973 38.5069 37.2973L38.5094 37.2974L38.5142 37.2977C38.519 37.2992 38.5274 37.2997 38.5274 37.2997L38.531 37.2999C38.5454 37.3031 38.5539 37.3036 38.5539 37.3036L85.7911 40.0149L85.9004 38.1104L88.2325 36.5088L88.4034 33.5316L89.5786 30.5074L88.7419 27.6332L74.6675 26.8253C74.5442 26.8183 74.4249 26.7847 74.3093 26.7296C74.2397 26.6953 74.1717 26.6538 74.1042 26.6051C73.8458 26.4181 73.6128 26.1258 73.4055 25.7878C73.135 25.3455 72.9105 24.8222 72.7387 24.3504C72.4723 23.6258 72.3298 23.0248 72.3298 23.0248C72.3368 22.8603 72.3435 22.7018 72.3475 22.5481C72.4135 19.5608 71.6827 18.3925 71.6827 18.3925C70.299 18.187 68.8955 18.03 67.497 17.9134L67.7738 13.0917L67.1973 13.0586L66.9214 17.867C66.8769 17.864 66.8325 17.8606 66.7881 17.8571C66.7214 17.852 66.6548 17.8469 66.5881 17.843L67.0623 9.58205L65.8792 9.51414L65.4054 17.7679C65.0091 17.7451 64.6137 17.7261 64.2219 17.7084L64.6961 9.44624L63.5432 9.38006L63.0676 17.6664C62.8535 17.659 62.6416 17.6541 62.4297 17.6492L63.0339 7.12117L62.4273 7.08635L61.8218 17.6361C53.6664 17.4978 46.8796 18.3983 46.8796 18.3983C45.8321 18.5467 45.404 19.7734 45.2395 20.9921C45.1525 21.6406 45.1396 22.2886 45.1485 22.7668C45.157 23.2316 45.1856 23.5364 45.1856 23.5364L40.3482 23.8916L38.836 24.0024L33.5408 24.3908L11.3629 26.018L11.8594 17.3691L4.75501 19.4723L4.28848 27.6003L-0.669632 27.7352ZM67.0474 20.2118L68.1399 20.2745L68.0772 21.367L66.9847 21.3043L67.0474 20.2118ZM69.3822 20.3458L70.4746 20.4085L70.4119 21.501L69.3195 21.4383L69.3822 20.3458ZM38.6997 29.1656C38.5909 29.1594 38.5089 29.0674 38.5151 28.9586L38.5139 28.9586C38.5201 28.851 38.6133 28.7691 38.7209 28.7752L39.423 28.8155C39.4774 28.8187 39.5257 28.8433 39.5587 28.8803C39.5929 28.9174 39.6118 28.9682 39.6088 29.0214C39.6026 29.129 39.5105 29.2122 39.4018 29.2059L38.6997 29.1656ZM41.6882 29.3372C41.5806 29.331 41.4974 29.2389 41.5036 29.1302C41.5098 29.0226 41.603 28.9407 41.7106 28.9468L42.4139 28.9872C42.4671 28.9903 42.5154 29.0149 42.5484 29.0519C42.5826 29.089 42.6015 29.1398 42.5985 29.193C42.5923 29.3006 42.499 29.3837 42.3915 29.3775L41.6882 29.3372ZM45.587 29.3645C45.5808 29.4721 45.4875 29.5552 45.38 29.5491L44.6767 29.5087C44.5679 29.5025 44.486 29.4093 44.4921 29.3017C44.4983 29.1941 44.5915 29.1122 44.6991 29.1184L45.4024 29.1587C45.4568 29.1619 45.5039 29.1864 45.5369 29.2235C45.5711 29.2606 45.5901 29.3114 45.587 29.3645ZM47.6664 29.6803C47.5576 29.6741 47.4756 29.5821 47.4819 29.4733L47.4806 29.4732C47.4868 29.3657 47.58 29.2837 47.6876 29.2899L48.3909 29.3303C48.4441 29.3333 48.4924 29.3579 48.5254 29.395C48.5596 29.4321 48.5786 29.4829 48.5755 29.5361C48.5693 29.6436 48.4773 29.7269 48.3697 29.7207L47.6664 29.6803ZM50.4717 29.6849C50.4688 29.6714 50.4696 29.6581 50.4704 29.6448L50.4716 29.6437C50.4721 29.6352 50.4731 29.6268 50.4746 29.6186C50.4754 29.614 50.4764 29.6096 50.4775 29.6052C50.4806 29.5933 50.4849 29.5814 50.4904 29.5696C50.496 29.5578 50.5026 29.5473 50.5104 29.538C50.5183 29.5276 50.5261 29.5183 50.5363 29.5104C50.5745 29.4774 50.6241 29.4585 50.6773 29.4615L51.3806 29.5019C51.4338 29.5049 51.4821 29.5295 51.5151 29.5666C51.5482 29.6036 51.5671 29.6544 51.564 29.7076C51.5578 29.8152 51.4646 29.8983 51.357 29.8921L50.6537 29.8518C50.6005 29.8487 50.5535 29.823 50.5192 29.7859C50.5101 29.7768 50.5034 29.7668 50.4967 29.7555C50.49 29.7454 50.4846 29.7342 50.4805 29.7218C50.4763 29.7106 50.4734 29.6971 50.4717 29.6849ZM53.6434 30.0234C53.5346 30.0171 53.4526 29.9251 53.4589 29.8164L53.4601 29.8164C53.4662 29.7089 53.5595 29.6269 53.667 29.6331L54.3703 29.6735C54.4235 29.6765 54.4718 29.7011 54.5048 29.7382C54.5379 29.7752 54.5568 29.826 54.5537 29.8792C54.5475 29.9868 54.4543 30.0699 54.3467 30.0637L53.6434 30.0234ZM56.6319 30.1949C56.5231 30.1887 56.4411 30.0967 56.4474 29.9879L56.4462 29.9878C56.4523 29.8803 56.5455 29.7983 56.6531 29.8045L57.3552 29.8448C57.4108 29.848 57.4579 29.8725 57.4909 29.9096C57.5252 29.9467 57.5441 29.9975 57.541 30.0507C57.5348 30.1582 57.4428 30.2414 57.334 30.2352L56.6319 30.1949ZM59.9474 27.5639C59.9388 27.7137 59.8706 27.8444 59.7671 27.9367L59.7659 27.9366C59.6637 28.0277 59.5249 28.0804 59.3763 28.0718C59.079 28.0548 58.8512 27.7992 58.8682 27.5019C58.8768 27.3533 58.9449 27.2214 59.0484 27.1304C59.1519 27.0381 59.2907 26.9854 59.4393 26.994C59.588 27.0025 59.7199 27.0707 59.8109 27.1741C59.9032 27.2764 59.956 27.414 59.9474 27.5639ZM59.6192 30.3664C59.5116 30.3602 59.4284 30.2681 59.4347 30.1594L59.4335 30.1593C59.4396 30.0517 59.5316 29.9697 59.6404 29.976L60.3437 30.0163C60.3981 30.0195 60.4452 30.044 60.4782 30.081C60.5125 30.1182 60.5314 30.169 60.5283 30.2221C60.5221 30.3297 60.4301 30.4129 60.3225 30.4067L59.6192 30.3664ZM61.4475 28.1919C61.1502 28.1749 60.9224 27.9193 60.9394 27.622C60.948 27.4734 61.0162 27.3415 61.1196 27.2504C61.2219 27.1581 61.3607 27.1055 61.5093 27.114C61.658 27.1225 61.791 27.192 61.8821 27.2942C61.9733 27.3964 62.026 27.534 62.0174 27.6839C62.0088 27.8337 61.9407 27.9644 61.8384 28.0568C61.7349 28.1478 61.5961 28.2005 61.4475 28.1919ZM63.5188 28.3108C63.2203 28.2937 62.9937 28.0382 63.0107 27.7409C63.0193 27.5923 63.0874 27.4604 63.1897 27.3693C63.2932 27.277 63.432 27.2243 63.5806 27.2329C63.7293 27.2414 63.8624 27.3097 63.9534 27.4131C64.0458 27.5154 64.0985 27.653 64.0899 27.8029C64.0813 27.9527 64.0132 28.0834 63.9096 28.1756C63.8062 28.2667 63.6674 28.3193 63.5188 28.3108ZM65.5888 28.4296C65.2916 28.4126 65.0637 28.157 65.0808 27.8597C65.0893 27.7111 65.1575 27.5792 65.261 27.4882C65.3633 27.3958 65.5009 27.3431 65.6507 27.3517C65.8006 27.3603 65.9312 27.4284 66.0235 27.5319C66.1158 27.6342 66.1686 27.7718 66.16 27.9217C66.1514 28.0715 66.0832 28.2022 65.9797 28.2945C65.8763 28.3855 65.7375 28.4382 65.5888 28.4296ZM67.6601 28.5485C67.3629 28.5315 67.135 28.2759 67.1521 27.9786L67.1533 27.9787C67.1618 27.83 67.23 27.6982 67.3323 27.607C67.4358 27.5148 67.5722 27.462 67.722 27.4706C67.8718 27.4792 68.0025 27.5473 68.0948 27.6508C68.1871 27.7531 68.2398 27.8907 68.2312 28.0406C68.2226 28.1904 68.1545 28.3211 68.051 28.4133C67.9476 28.5044 67.81 28.5571 67.6601 28.5485ZM73.3362 30.4177C73.4848 30.4263 73.6167 30.4945 73.7078 30.5967C73.8001 30.7002 73.8529 30.8366 73.8443 30.9864C73.8357 31.1363 73.7675 31.2682 73.664 31.3592C73.5617 31.4516 73.4229 31.5042 73.2743 31.4957C72.977 31.4786 72.7492 31.2231 72.7663 30.9246C72.7748 30.7759 72.843 30.6453 72.9465 30.553C73.0487 30.4619 73.1875 30.4092 73.3362 30.4177ZM22.9812 30.6944C23.1311 30.703 23.2629 30.7712 23.354 30.8746L23.3528 30.8745C23.4451 30.978 23.4977 31.1168 23.4892 31.2655C23.4807 31.4141 23.4125 31.546 23.309 31.6371C23.2055 31.7293 23.0679 31.7821 22.9181 31.7735C22.6208 31.7564 22.393 31.5008 22.41 31.2035C22.4186 31.0537 22.4868 30.9218 22.5903 30.8308C22.6938 30.7385 22.8314 30.6858 22.9812 30.6944ZM25.0525 30.8133C25.1999 30.8217 25.333 30.89 25.4241 30.9934C25.5163 31.0969 25.569 31.2357 25.5605 31.3844C25.5519 31.533 25.4837 31.6649 25.3803 31.7559C25.278 31.8483 25.1392 31.9009 24.9906 31.8924C24.6933 31.8753 24.4655 31.6198 24.4825 31.3225C24.4911 31.1727 24.5593 31.0408 24.6628 30.9497C24.7651 30.8574 24.9051 30.8048 25.0525 30.8133ZM27.1226 30.9321C27.2712 30.9406 27.4031 31.0088 27.4954 31.1123L27.4966 31.1124C27.5888 31.2159 27.6415 31.3547 27.633 31.5033C27.6244 31.652 27.5562 31.7838 27.4528 31.8749C27.3493 31.9672 27.2105 32.0198 27.0619 32.0113C26.7634 31.9942 26.5368 31.7387 26.5538 31.4414C26.5624 31.2915 26.6306 31.1597 26.7328 31.0685C26.8351 30.9762 26.9739 30.9235 27.1226 30.9321ZM75.405 30.5365C75.5549 30.5451 75.6868 30.6133 75.7779 30.7155L75.7791 30.7156C75.8714 30.8191 75.9241 30.9555 75.9155 31.1053C75.9069 31.2552 75.8388 31.3871 75.7353 31.4781C75.6318 31.5704 75.4942 31.6231 75.3444 31.6145C75.0459 31.5974 74.8193 31.3419 74.8364 31.0434C74.8449 30.8947 74.913 30.7641 75.0153 30.6717C75.1188 30.5807 75.2552 30.5279 75.405 30.5365ZM77.4775 30.6554C77.6262 30.664 77.7568 30.7321 77.8492 30.8344C77.9414 30.9379 77.9942 31.0743 77.9856 31.2241C77.977 31.374 77.9088 31.5059 77.8054 31.5969C77.7031 31.6893 77.5643 31.7419 77.4157 31.7334C77.1184 31.7163 76.8906 31.4608 76.9077 31.1623C76.9162 31.0136 76.9843 30.883 77.0878 30.7907C77.1901 30.6996 77.3289 30.6469 77.4775 30.6554ZM79.5488 30.7743C79.6975 30.7829 79.8281 30.851 79.9205 30.9533L79.9192 30.9532C80.0103 31.0566 80.0631 31.193 80.0545 31.3429C80.0459 31.4927 79.9777 31.6246 79.8755 31.7157C79.772 31.808 79.6344 31.8607 79.4857 31.8522C79.1885 31.8351 78.9606 31.5796 78.9778 31.2811C78.9863 31.1324 79.0544 31.0018 79.1579 30.9095C79.2614 30.8185 79.4002 30.7658 79.5488 30.7743ZM81.6189 30.8932C81.7675 30.9017 81.8994 30.9699 81.9905 31.0721L81.9893 31.072C82.0816 31.1755 82.1344 31.3119 82.1258 31.4618C82.1172 31.6116 82.049 31.7435 81.9456 31.8346C81.8433 31.9269 81.7044 31.9796 81.5558 31.971C81.2585 31.954 81.0307 31.6984 81.0478 31.3999C81.0564 31.2513 81.1245 31.1206 81.228 31.0283C81.3314 30.9373 81.4703 30.8846 81.6189 30.8932ZM83.689 31.012C83.8376 31.0205 83.9707 31.0888 84.0618 31.191L84.0606 31.1909C84.1517 31.2943 84.2045 31.4307 84.1959 31.5806C84.1873 31.7304 84.1191 31.8623 84.0168 31.9535C83.9133 32.0457 83.7745 32.0984 83.6259 32.0898C83.3286 32.0728 83.1008 31.8172 83.1179 31.5187C83.1265 31.3701 83.1946 31.2382 83.2981 31.1471C83.4015 31.0561 83.5403 31.0034 83.689 31.012ZM85.7603 31.1309C85.9089 31.1394 86.0408 31.2076 86.1319 31.3098C86.2242 31.4133 86.277 31.5497 86.2684 31.6996C86.2598 31.8494 86.1916 31.9813 86.0881 32.0723C85.9858 32.1647 85.847 32.2173 85.6984 32.2088C85.4011 32.1917 85.1733 31.9362 85.1904 31.6377C85.199 31.489 85.2671 31.3584 85.3694 31.266C85.4728 31.175 85.6116 31.1223 85.7603 31.1309Z" fill="#202023"/>
<path fill-rule="evenodd" clip-rule="evenodd" d="M107.723 22.953C107.723 22.953 114.154 21.6234 116.049 26.8387C116.383 26.8995 116.64 27.0775 116.71 27.3371C116.779 27.5966 116.656 27.8565 116.417 28.0722C116.538 28.6324 116.641 29.5198 116.414 30.4952C116.034 32.1461 114.717 34.0515 110.966 35.0566L90.2431 40.6093L89.7494 38.7666L91.5597 37.7953L90.9166 37.3273L93.3314 36.6802L90.9059 35.3552L95.1407 33.7731L90.1593 32.569L90.8889 29.4963L93.2785 26.8234L107.723 22.953ZM95.3339 27.3516C95.4777 27.3131 95.6243 27.3365 95.7444 27.4058C95.8642 27.474 95.9574 27.5881 95.9963 27.7331C96.0351 27.878 96.0114 28.0235 95.9421 28.1436C95.8725 28.2625 95.7572 28.356 95.6134 28.3946C95.3257 28.4716 95.0292 28.3005 94.9522 28.0128C94.9136 27.869 94.937 27.7224 95.0067 27.6035C95.076 27.4834 95.1901 27.3902 95.3339 27.3516ZM97.7484 26.8688C97.6295 26.7992 97.4829 26.7758 97.3391 26.8144C97.1953 26.8529 97.08 26.9464 97.0118 27.0662C96.9422 27.1851 96.9188 27.3317 96.9573 27.4755C97.0344 27.7632 97.3309 27.9344 97.6185 27.8573C97.7623 27.8187 97.8776 27.7252 97.9461 27.6066C98.0154 27.4865 98.0391 27.3411 98.0003 27.1961C97.9614 27.0511 97.8682 26.937 97.7484 26.8688ZM99.3419 26.2777C99.4857 26.2392 99.6323 26.2625 99.7513 26.3322C99.871 26.4003 99.9643 26.5145 100.003 26.6594C100.042 26.8044 100.018 26.9499 99.9489 27.0699C99.8805 27.1885 99.7652 27.2821 99.6214 27.3206C99.3337 27.3977 99.0372 27.2265 98.9602 26.9389C98.9216 26.7951 98.945 26.6485 99.0147 26.5295C99.0828 26.4098 99.1981 26.3162 99.3419 26.2777ZM101.755 25.7952C101.636 25.7256 101.49 25.7022 101.346 25.7407C101.202 25.7793 101.087 25.8728 101.017 25.9929C100.948 26.113 100.926 26.2581 100.964 26.4019C101.041 26.6895 101.338 26.8607 101.625 26.7837C101.769 26.7451 101.884 26.6516 101.953 26.533C102.022 26.4129 102.046 26.2674 102.007 26.1225C101.968 25.9775 101.875 25.8634 101.755 25.7952ZM103.349 25.2041C103.494 25.1652 103.639 25.1889 103.759 25.2582C103.878 25.3267 103.971 25.4408 104.01 25.5858C104.049 25.7308 104.025 25.8762 103.957 25.996C103.887 26.1149 103.773 26.2081 103.628 26.247C103.341 26.3241 103.044 26.1529 102.967 25.8653C102.928 25.7214 102.952 25.5748 103.021 25.4559C103.09 25.3362 103.204 25.2429 103.349 25.2041Z" fill="#202023"/>
<path d="M80.5489 25.5907L85.6678 26.9379L87.7979 39.9612L90.0281 30.5275L96.5853 32.169L92.5192 27.1412L95.0893 18.9758L91.3298 22.702L85.61 14.039L87.4792 21.0149L78.5098 17.9806L83.04 22.2044L80.5489 25.5907Z" fill="#EC1F1F"/>
</g>
<defs>
<clipPath id="clip0_2669_127">
<rect width="119" height="44" fill="white" transform="matrix(-1 0 0 1 119 0)"/>
</clipPath>
</defs>
</svg>
